<svg width="20" height="20" viewBox="0 0 20 20" fill="none" xmlns="http://www.w3.org/2000/svg">
<path d="M17.0754 2.92785C13.1759 -0.971638 6.82893 -0.971638 2.92944 2.92785C1.04052 4.81752 0 7.32938 0 10.0008C0 12.6723 1.04052 15.1841 2.92944 17.073C4.87958 19.0232 7.44101 19.9978 10.0024 19.9978C12.5638 19.9978 15.1253 19.0232 17.0754 17.073C20.9748 13.1735 20.9748 6.82809 17.0754 2.92785ZM15.9798 15.9775C12.6839 19.2734 7.32089 19.2734 4.02496 15.9775C2.42893 14.3814 1.54955 12.2585 1.54955 10.0008C1.54955 7.7431 2.42893 5.62019 4.02496 4.02337C7.32089 0.727441 12.6839 0.728223 15.9798 4.02337C19.275 7.31931 19.275 12.6823 15.9798 15.9775Z" fill="black"/>
<path d="M13.3409 12.1418L11.1475 9.95149L13.3409 7.76119C13.6431 7.45904 13.6431 6.96861 13.3417 6.66564C13.0388 6.36193 12.5484 6.36271 12.2454 6.66486L10.0505 8.85671L7.85553 6.66486C7.5526 6.36271 7.06216 6.36193 6.75923 6.66564C6.45708 6.96857 6.45708 7.459 6.76001 7.76119L8.95343 9.95149L6.76001 12.1418C6.45708 12.4439 6.45708 12.9344 6.75923 13.2373C6.91033 13.3892 7.10943 13.4643 7.30779 13.4643C7.50615 13.4643 7.70447 13.3884 7.85557 13.2381L10.0505 11.0462L12.2455 13.2381C12.3966 13.3892 12.5949 13.4643 12.7932 13.4643C12.9916 13.4643 13.1907 13.3884 13.3418 13.2373C13.6439 12.9344 13.6439 12.4439 13.3409 12.1418Z" fill="black"/>
</svg>
